<?xml version="1.0" standalone="no"?>
<!DOCTYPE svg PUBLIC "-//W3C//DTD SVG 20010904//EN"
 "http://www.w3.org/TR/2001/REC-SVG-20010904/DTD/svg10.dtd">
<svg version="1.0" xmlns="http://www.w3.org/2000/svg"
 width="300.000000pt" height="300.000000pt" viewBox="0 0 300.000000 300.000000"
 preserveAspectRatio="xMidYMid meet">
<metadata>
Created by potrace 1.10, written by Peter Selinger 2001-2011
</metadata>
<g transform="translate(0.000000,300.000000) scale(0.100000,-0.100000)"
fill="#000000" stroke="none">
<path d="M1230 2975 c-131 -24 -251 -64 -383 -127 l-127 -61 20 -22 c41 -44
11 -115 -56 -134 -44 -12 -80 2 -91 36 -8 24 -10 23 -83 -41 -95 -84 -186
-188 -257 -295 -58 -87 -59 -100 -5 -101 13 0 22 -6 22 -15 0 -18 -50 -21 -68
-3 -16 16 -21 9 -70 -98 -76 -168 -119 -354 -123 -534 l-2 -103 99 -44 c106
-47 128 -65 118 -97 -9 -30 -45 -66 -64 -66 -10 0 -46 13 -81 29 -35 16 -65
26 -67 21 -6 -15 40 -217 69 -305 28 -82 130 -293 164 -339 14 -19 17 -18 85
30 39 27 94 64 123 82 35 22 52 39 51 52 0 11 -1 36 -2 55 l-2 35 -35 -15
c-29 -12 -37 -12 -41 -1 -6 16 53 203 66 211 12 7 30 -36 30 -72 0 -26 12 -27
64 -7 24 9 20 -22 -13 -118 -17 -45 -29 -84 -27 -85 1 -1 38 18 81 44 44 25
112 60 150 78 85 39 130 75 155 125 l19 37 -39 18 c-27 12 -40 25 -40 37 0 11
3 18 8 16 71 -30 93 -46 98 -68 16 -76 30 -111 74 -174 26 -39 65 -87 86 -106
40 -36 250 -190 260 -190 3 0 31 -16 62 -36 l57 -37 40 23 c160 91 310 214
364 298 37 57 65 138 74 207 6 47 6 49 -9 30 -9 -11 -22 -35 -30 -52 -8 -18
-19 -33 -25 -33 -8 0 -8 -4 -1 -13 13 -16 10 -40 -7 -61 -8 -9 -11 -19 -7 -23
3 -3 -6 -22 -21 -42 -14 -20 -27 -37 -28 -39 -4 -5 -35 11 -35 18 0 5 14 21
30 37 17 15 30 31 30 35 0 4 -17 -8 -37 -27 -35 -32 -37 -37 -24 -56 12 -21 9
-26 -43 -73 -116 -106 -145 -129 -205 -163 -58 -32 -63 -34 -97 -21 -20 7 -39
19 -41 25 -3 7 -12 13 -21 13 -8 0 -29 10 -46 23 -17 12 -48 31 -68 42 -21 11
-38 23 -38 27 0 12 39 9 63 -4 12 -7 31 -13 42 -15 11 -2 30 -15 42 -31 18
-21 23 -23 23 -10 0 11 5 15 15 12 8 -4 13 -10 10 -14 -8 -13 9 -20 25 -9 12
7 12 9 1 9 -8 0 -11 6 -7 17 4 10 4 14 0 11 -3 -4 -17 5 -31 20 -23 25 -70 41
-57 20 3 -5 12 -7 19 -4 7 2 15 -4 18 -15 6 -23 -8 -35 -20 -16 -11 19 -98 59
-120 55 -10 -2 -17 2 -15 10 3 18 -17 54 -28 47 -4 -3 -16 2 -24 11 -15 14
-16 13 -16 -10 0 -16 11 -33 33 -50 20 -17 26 -26 16 -26 -29 0 -62 47 -63 90
-1 21 -8 45 -16 52 -12 11 -12 11 -2 -4 10 -13 10 -17 0 -20 -22 -8 -62 20
-85 59 -12 21 -27 37 -32 35 -6 -1 -11 6 -11 16 0 10 -6 27 -14 37 -7 10 -11
27 -8 37 2 10 -1 18 -8 18 -9 0 -10 10 -6 35 5 27 4 35 -8 35 -44 0 -82 122
-85 270 -2 75 -5 88 -27 111 -13 14 -24 35 -24 48 0 12 -14 74 -31 138 -32
120 -33 158 -3 215 26 49 98 50 108 0 4 -15 -2 -67 -13 -116 -25 -115 -17
-299 12 -248 2 4 2 1 1 -5 -5 -18 6 -43 18 -43 7 0 8 21 3 63 -9 70 -10 183
-2 372 3 72 2 103 -1 71 -7 -57 -8 -59 -24 -42 -10 10 -18 26 -18 35 0 10 -7
35 -15 55 -8 20 -19 89 -24 154 -4 64 -9 96 -10 70 -2 -70 -7 -78 -39 -63 -15
7 -60 16 -100 20 -59 5 -78 3 -98 -10 -49 -32 -18 -81 57 -91 70 -8 69 -8 69
-77 0 -74 19 -103 62 -92 19 5 27 17 37 57 15 55 28 53 37 -4 6 -34 4 -36 -29
-47 -73 -25 -95 -141 -54 -287 14 -49 28 -106 31 -126 4 -21 18 -50 31 -66 21
-25 26 -46 35 -143 6 -63 13 -124 17 -137 4 -17 1 -23 -8 -22 -39 6 -60 -2
-71 -25 -10 -22 -8 -29 16 -54 19 -20 26 -35 22 -49 -11 -34 -28 -45 -224
-142 l-44 -21 7 56 c6 46 4 59 -10 75 -10 11 -26 20 -36 20 -10 0 -25 13 -34
30 -42 81 -89 52 -129 -79 -32 -104 -29 -133 14 -153 16 -7 30 -18 30 -24 0
-17 -168 -136 -186 -132 -21 4 -85 121 -133 243 -44 113 -89 280 -78 291 4 4
18 2 32 -4 60 -28 121 -8 150 48 35 67 7 105 -120 164 -51 24 -95 48 -99 54
-8 14 36 268 64 371 26 91 86 240 108 264 8 9 23 15 32 12 18 -6 70 29 70 48
0 6 -10 21 -22 34 l-21 23 49 72 c54 79 239 278 259 278 7 0 26 -7 41 -15 37
-19 54 -19 104 1 57 23 84 64 82 126 l-1 50 92 43 c116 55 231 89 422 125 191
36 335 33 335 -6 0 -8 5 -14 11 -14 6 0 9 -7 5 -15 -3 -8 -2 -14 2 -13 4 1 17
-3 29 -10 17 -10 22 -9 27 4 3 8 10 13 15 10 5 -3 15 1 22 10 41 50 354 -63
569 -204 108 -72 291 -249 369 -359 77 -107 163 -277 201 -394 36 -108 90
-389 90 -462 0 -56 -35 -249 -49 -275 -7 -13 -12 -10 -25 16 -9 18 -28 39 -41
48 -24 16 -27 15 -45 -1 -11 -10 -20 -27 -20 -38 0 -19 63 -153 81 -171 15
-16 11 -42 -17 -112 -26 -65 -27 -66 -59 -60 -40 8 -99 -16 -141 -56 l-32 -30
-38 24 c-22 13 -56 32 -76 41 -49 23 -52 29 -33 72 16 40 9 67 -23 83 -17 9
-94 8 -165 -3 -34 -5 -53 2 -159 61 -66 36 -123 63 -126 59 -15 -14 21 -42
138 -107 105 -59 125 -67 132 -54 7 13 27 16 98 16 50 0 90 -4 90 -8 0 -4 -14
-30 -31 -56 -16 -27 -29 -49 -27 -50 2 -1 32 -16 68 -34 69 -34 217 -116 261
-145 27 -18 27 -18 49 18 22 35 22 62 1 95 -9 12 -16 11 -56 -8 -53 -26 -65
-27 -65 -8 0 13 98 66 122 66 5 0 16 -17 25 -37 l15 -38 30 65 c16 36 42 102
58 148 l30 82 -23 -5 c-19 -5 -27 4 -65 80 -37 75 -40 86 -25 92 9 4 18 2 20
-3 2 -6 18 -41 36 -78 29 -60 34 -66 49 -54 29 22 48 168 48 372 -1 284 -39
445 -162 687 -204 399 -587 688 -1035 778 -83 17 -136 21 -295 20 -116 0 -223
-6 -268 -14z m510 -18 c0 -22 -37 -50 -56 -43 -15 6 -14 9 6 31 26 27 50 33
50 12z m-945 -736 l39 -6 -3 -90 c-3 -98 -5 -105 -27 -105 -12 0 -13 14 -8 83
l7 84 -48 6 c-26 4 -60 7 -76 7 -28 0 -44 13 -35 29 5 8 74 5 151 -8z"/>
<path d="M2093 2739 c-19 -19 -24 -20 -56 -8 -29 10 -39 10 -51 0 -9 -7 -13
-17 -10 -22 3 -5 -3 -6 -12 -2 -19 7 -17 2 20 -52 28 -41 34 -44 72 -39 38 5
49 -7 34 -37 -11 -20 -12 -20 -33 -2 -22 18 -22 18 -4 -3 9 -11 15 -24 12 -27
-3 -4 -3 -5 0 -3 3 2 23 -14 44 -35 45 -45 64 -48 86 -15 13 20 14 29 5 46
-10 19 -8 25 22 50 27 24 31 32 22 47 -6 10 -25 25 -42 33 -20 10 -32 22 -32
36 0 21 -28 54 -46 54 -5 0 -19 -9 -31 -21z m47 -23 c0 -29 -20 -66 -35 -66
-18 0 -19 7 -4 49 11 31 39 43 39 17z m-80 -63 c0 -23 -26 -14 -49 17 -30 42
-16 59 20 24 16 -15 29 -34 29 -41z m160 -27 c0 -12 -40 -26 -76 -26 -17 0
-18 27 -1 33 27 11 77 7 77 -7z m-44 -122 c-6 -16 -10 -14 -38 13 -21 22 -29
37 -24 49 6 16 10 14 38 -13 21 -22 29 -37 24 -49z"/>
<path d="M652 2730 c-44 -27 -42 -64 3 -68 52 -5 103 65 59 82 -23 9 -26 8
-62 -14z"/>
<path d="M915 2590 c-25 -26 -27 -32 -17 -55 7 -15 17 -23 23 -20 7 5 6 11 -2
21 -9 12 -8 19 8 37 47 51 36 67 -12 17z"/>
<path d="M1237 2513 c-16 -16 -19 -16 -27 -3 -7 11 -9 6 -7 -17 2 -36 14 -43
24 -15 3 9 13 25 21 35 8 9 13 17 11 17 -3 0 -13 -8 -22 -17z"/>
<path d="M1025 2482 c-19 -16 -91 -142 -81 -142 2 0 26 33 52 73 26 39 52 75
58 79 6 5 7 8 1 8 -5 -1 -19 -8 -30 -18z"/>
<path d="M2532 2214 c-86 -91 -95 -114 -58 -153 21 -22 25 -34 20 -58 -5 -24
-1 -35 16 -51 21 -19 25 -20 51 -7 36 19 159 161 159 184 0 9 -11 28 -25 41
-17 16 -25 34 -25 56 0 32 -28 64 -55 64 -5 0 -43 -34 -83 -76z m105 17 c-3
-16 -9 -40 -13 -55 -6 -24 -4 -26 30 -26 23 0 36 -5 36 -13 0 -19 -156 -183
-166 -174 -4 4 0 29 9 55 22 62 22 62 -17 62 -19 0 -37 4 -40 8 -7 11 135 170
153 171 10 1 12 -7 8 -28z"/>
<path d="M2558 2146 l-28 -34 31 -7 c27 -6 30 -10 24 -33 -6 -26 -5 -26 24 8
l29 35 -29 9 c-24 7 -28 13 -23 32 8 32 4 30 -28 -10z"/>
<path d="M2104 2243 c-3 -16 -7 -32 -8 -38 -2 -5 4 -16 11 -23 11 -11 11 -17
2 -28 -19 -23 -4 -26 16 -4 17 19 17 21 0 40 -12 14 -16 28 -12 50 8 38 0 40
-9 3z"/>
<path d="M1091 2110 c-39 -38 -53 -70 -30 -70 5 0 7 -4 4 -10 -9 -14 5 -12 37
4 28 15 195 15 219 1 16 -10 30 16 17 32 -6 7 -7 13 -2 14 5 0 -13 7 -40 14
-43 12 -53 12 -79 -1 -16 -9 -26 -11 -23 -5 4 6 3 11 -3 11 -6 0 -15 -9 -21
-21 -7 -11 -17 -18 -25 -16 -7 3 -18 0 -24 -6 -8 -8 -11 -8 -11 0 0 12 -18 12
-37 0 -7 -5 -13 -4 -13 2 0 10 18 25 35 27 6 0 15 2 22 2 7 1 10 9 7 17 -4 8
-1 22 6 30 24 29 2 15 -39 -25z"/>
<path d="M1851 2129 c9 -17 8 -23 -2 -30 -10 -6 -7 -8 11 -7 15 2 25 -3 27
-12 3 -12 -9 -15 -52 -17 -30 0 -55 3 -55 8 0 5 11 9 25 9 14 0 25 4 25 9 0
12 -29 23 -41 15 -5 -3 -9 1 -9 8 0 10 -2 10 -8 1 -5 -8 -19 -9 -44 -4 -53 12
-82 3 -102 -30 -10 -16 -22 -26 -28 -23 -6 4 -8 3 -5 -3 8 -12 93 -8 110 5 16
13 67 21 67 11 0 -4 -8 -10 -17 -13 -10 -3 8 -4 40 -1 37 2 67 -1 85 -11 63
-32 70 -4 15 62 -39 46 -62 59 -42 23z m-166 -56 c-23 -16 -58 -17 -53 -1 5
14 48 28 62 20 5 -3 1 -11 -9 -19z"/>
<path d="M1993 2047 c-2 -45 4 -120 13 -167 14 -76 18 -162 12 -257 -1 -18 -8
-35 -15 -37 -7 -3 -13 -18 -13 -33 0 -20 3 -24 9 -14 5 8 7 20 4 28 -3 7 2 13
11 13 9 0 16 -7 16 -15 0 -8 5 -15 10 -15 14 0 13 7 -5 34 -14 21 -14 24 1 30
13 5 14 9 4 21 -11 14 -7 19 13 16 6 -1 11 32 10 64 -1 6 -11 57 -23 115 l-21
105 30 27 c37 33 54 35 80 9 44 -44 45 -142 1 -263 -11 -32 -20 -75 -20 -97 0
-27 -8 -48 -24 -68 -19 -22 -25 -43 -27 -88 -2 -39 1 -60 9 -63 7 -2 19 -16
26 -31 19 -35 -1 -84 -43 -105 -20 -11 -28 -21 -24 -31 13 -37 113 59 113 109
0 12 -16 41 -35 65 -42 53 -43 71 -6 130 16 25 31 67 34 93 4 25 15 72 26 105
11 32 23 78 26 101 13 84 -31 173 -90 184 -25 5 -51 -13 -38 -25 3 -4 -6 -6
-20 -5 -15 1 -27 8 -27 15 0 7 3 13 8 13 12 0 6 64 -9 93 -13 24 -14 20 -16
-56z"/>
<path d="M301 2069 c-41 -10 -85 -28 -97 -40 -22 -20 -54 -123 -54 -172 0 -26
28 -57 51 -57 38 0 146 44 170 69 32 34 68 155 53 179 -24 38 -45 41 -123 21z
m99 -26 c0 -5 -11 -42 -23 -83 l-23 -75 -84 -27 c-46 -15 -86 -25 -89 -22 -5
5 28 146 39 164 13 22 180 61 180 43z"/>
<path d="M332 2011 c-24 -6 -24 -6 -4 -24 20 -18 20 -18 27 3 8 26 6 28 -23
21z"/>
<path d="M245 1978 c-7 -23 -25 -93 -25 -100 0 -8 90 20 103 32 15 14 -3 50
-33 65 -35 18 -39 18 -45 3z"/>
<path d="M1145 1976 c-27 -14 -45 -25 -39 -25 13 -1 104 38 104 44 0 9 -15 5
-65 -19z"/>
<path d="M1307 1987 c19 -10 13 -12 -45 -12 -45 0 -82 -6 -110 -19 -64 -29
-57 -42 29 -50 47 -5 50 -5 21 5 -23 7 -32 15 -30 27 4 22 38 29 38 8 0 -9 11
-22 25 -28 21 -10 28 -8 40 8 8 10 15 24 15 31 0 9 8 9 30 1 25 -8 28 -13 19
-24 -6 -8 -20 -14 -30 -14 -10 0 -21 -4 -24 -10 -8 -13 -1 -13 46 2 39 11 48
21 29 33 -6 4 -8 10 -5 15 6 9 -38 40 -57 40 -7 -1 -3 -6 9 -13z"/>
<path d="M1632 1984 c-12 -8 -20 -19 -17 -24 3 -5 1 -11 -5 -15 -5 -3 -10 -10
-10 -15 0 -11 66 -33 83 -27 6 2 -5 9 -25 16 -42 14 -47 25 -19 41 27 14 41
13 35 -4 -3 -8 7 -26 22 -41 23 -23 32 -26 68 -21 22 4 51 7 64 7 12 1 22 5
22 9 0 5 8 10 17 12 11 2 -9 15 -47 32 -49 22 -79 29 -120 28 -38 -1 -50 1
-40 8 8 5 10 10 5 10 -6 0 -21 -7 -33 -16z m152 -30 c26 -10 18 -31 -15 -43
-47 -16 -55 -13 -31 10 12 11 20 24 17 30 -7 10 6 12 29 3z"/>
<path d="M2217 1962 c-22 -24 -21 -35 1 -55 24 -22 45 -21 67 3 17 18 17 21 1
45 -19 30 -46 32 -69 7z m50 -18 c8 -21 -13 -42 -28 -27 -13 13 -5 43 11 43 6
0 13 -7 17 -16z"/>
<path d="M2133 1855 c0 -38 2 -53 4 -32 2 20 2 52 0 70 -2 17 -4 1 -4 -38z"/>
<path d="M697 1782 c-9 -10 -17 -33 -19 -51 -2 -27 -9 -36 -39 -51 -41 -21
-49 -36 -49 -86 0 -27 -5 -35 -24 -40 -35 -9 -64 -44 -68 -84 -2 -24 -9 -36
-23 -40 -33 -8 -65 -34 -65 -51 0 -35 36 -52 99 -47 75 5 101 26 101 79 0 35
4 40 34 53 39 16 56 42 56 84 0 24 6 32 29 40 45 16 63 51 56 108 -10 81 -54
124 -88 86z m47 -49 c15 -96 7 -113 -56 -113 l-30 0 4 -57 3 -58 -48 -9 -48
-10 3 -55 3 -56 -59 -8 c-32 -5 -65 -6 -74 -2 -26 10 0 25 55 31 l50 6 -8 42
c-12 62 -12 64 24 71 71 14 69 12 65 73 l-3 57 48 3 48 3 -7 60 c-5 49 -4 59
8 59 10 0 18 -14 22 -37z"/>
<path d="M275 1650 c-22 -24 -13 -66 16 -75 41 -13 73 43 43 76 -22 24 -36 24
-59 -1z m45 -30 c0 -11 -6 -20 -14 -20 -18 0 -29 16 -21 30 11 18 35 11 35
-10z"/>
<path d="M1331 1649 c-1 -20 44 -62 60 -57 8 3 0 12 -19 23 -17 10 -33 26 -35
34 -4 14 -5 14 -6 0z"/>
<path d="M1392 1641 c-10 -6 -8 -10 10 -14 41 -12 52 -9 38 8 -14 17 -29 19
-48 6z"/>
<path d="M1530 1620 c-37 -35 -32 -40 9 -9 17 12 34 18 41 14 8 -5 11 -3 8 5
-8 24 -25 21 -58 -10z"/>
<path d="M2457 1608 c-13 -13 -30 -54 -41 -96 l-19 -73 22 -23 c23 -24 116
-56 163 -56 35 0 54 25 74 101 27 103 16 121 -96 155 -62 19 -77 18 -103 -8z
m107 -29 c39 -12 74 -23 77 -25 13 -7 -38 -159 -54 -162 -17 -3 -157 37 -157
45 0 9 42 147 47 156 6 10 7 10 87 -14z"/>
<path d="M2496 1548 c-21 -64 -27 -90 -24 -92 6 -6 101 -36 104 -33 1 1 9 26
18 55 15 52 15 53 -7 61 -50 19 -87 23 -91 9z m64 -45 c0 -17 -19 -35 -29 -29
-18 12 -12 36 9 36 11 0 20 -3 20 -7z"/>
<path d="M1415 1570 c-4 -6 -15 -8 -26 -5 -11 4 -19 2 -19 -5 0 -7 -7 -10 -15
-7 -8 4 -17 2 -20 -2 -2 -5 -24 -13 -48 -19 -50 -13 -72 -34 -83 -77 l-7 -30
25 23 c13 12 30 22 37 22 7 0 10 4 6 9 -3 6 11 18 31 27 28 14 38 14 44 5 9
-16 71 -5 67 12 -1 6 8 13 21 15 26 4 27 8 8 28 -10 9 -17 11 -21 4z"/>
<path d="M1526 1561 c-18 -7 -16 -10 15 -25 37 -20 89 -28 89 -14 0 4 5 8 10
8 6 0 10 -7 10 -16 0 -8 4 -12 10 -9 5 3 17 -3 27 -15 10 -11 25 -20 33 -20 9
0 21 -5 28 -12 16 -16 21 -8 12 18 -14 35 -71 73 -115 75 -22 1 -44 5 -50 9
-14 9 -46 9 -69 1z"/>
<path d="M1647 1442 c-14 -3 -16 -7 -6 -18 9 -11 9 -18 -1 -29 -11 -13 -10
-14 2 -10 17 7 41 52 30 58 -4 2 -15 2 -25 -1z"/>
<path d="M10 1402 c0 -37 1 -38 76 -70 60 -26 79 -31 90 -21 28 23 16 49 -31
69 -25 11 -65 29 -90 40 l-45 19 0 -37z"/>
<path d="M1283 1426 c2 -6 21 -12 43 -12 21 -1 77 -5 124 -9 70 -6 92 -5 117
8 17 9 34 13 39 9 5 -4 4 -1 -2 6 -7 9 -23 10 -56 3 -32 -5 -50 -5 -58 3 -8 8
-9 6 -5 -6 4 -10 3 -18 -3 -18 -6 0 -12 4 -14 9 -5 13 -189 20 -185 7z"/>
<path d="M1344 1371 c19 -21 53 -33 61 -21 2 4 -14 14 -37 23 -39 16 -40 16
-24 -2z"/>
<path d="M2031 1351 c-14 -25 -14 -34 -1 -26 17 10 11 -11 -10 -35 -11 -12
-26 -20 -34 -17 -10 4 -12 0 -8 -15 3 -14 7 -16 12 -7 6 8 9 6 13 -7 4 -17 5
-17 6 2 0 11 15 30 31 42 32 24 39 52 16 71 -12 10 -17 8 -25 -8z"/>
<path d="M1394 1288 c22 -4 44 -7 50 -5 6 2 16 -3 23 -12 11 -14 12 -14 13 2
0 9 1 17 3 17 1 0 16 -4 34 -9 22 -6 37 -6 48 3 14 10 -5 12 -96 13 -89 0
-105 -2 -75 -9z"/>
<path d="M1676 1148 c7 -25 34 -67 34 -55 0 14 -29 77 -35 77 -4 0 -3 -10 1
-22z"/>
<path d="M478 1015 c-4 -16 -10 -38 -14 -48 -6 -16 -3 -18 30 -12 34 7 36 6
37 -21 0 -25 2 -22 15 16 18 59 18 63 -5 50 -29 -15 -36 -13 -47 18 l-10 27
-6 -30z"/>
<path d="M2307 973 c-14 -14 -6 -25 35 -43 l42 -19 18 30 c10 16 18 32 18 34
0 8 -106 6 -113 -2z"/>
<path d="M1684 874 c3 -7 0 -15 -7 -18 -7 -3 -2 -3 10 -1 12 3 24 1 28 -5 3
-5 13 -10 22 -10 18 0 8 15 -10 15 -7 0 -11 7 -10 16 2 9 -5 15 -17 15 -12 0
-19 -5 -16 -12z"/>
<path d="M1635 831 c-4 -14 -12 -17 -28 -13 -12 3 -20 3 -17 1 3 -2 16 -13 29
-24 14 -11 21 -15 17 -8 -4 7 1 24 10 38 9 14 12 25 6 25 -6 0 -13 -9 -17 -19z"/>
<path d="M1525 789 c-9 -27 14 -99 31 -99 30 0 42 12 38 38 -3 15 -8 29 -11
32 -3 3 -3 -5 0 -17 6 -28 -4 -29 -27 -4 -16 18 -16 22 -4 40 8 12 18 18 21
14 4 -3 7 -1 7 5 0 18 -21 14 -36 -5 -13 -17 -14 -17 -8 0 3 9 4 17 1 17 -3 0
-9 -10 -12 -21z"/>
<path d="M1476 763 c-11 -11 -6 -23 9 -23 9 0 20 -10 25 -22 8 -21 9 -22 9 -3
1 21 -33 58 -43 48z"/>
<path d="M1469 509 c-9 -17 -8 -25 5 -37 13 -14 14 -13 9 6 -3 12 0 29 7 37 8
10 9 15 2 15 -6 0 -16 -10 -23 -21z"/>
<path d="M1395 159 c-6 -17 -1 -67 8 -76 4 -4 4 -22 1 -40 -4 -23 -2 -33 6
-33 9 0 11 20 6 76 -5 78 -11 98 -21 73z"/>
</g>
</svg>
